<?xml version="1.0" standalone="no"?>
<!DOCTYPE svg PUBLIC "-//W3C//DTD SVG 20010904//EN"
 "http://www.w3.org/TR/2001/REC-SVG-20010904/DTD/svg10.dtd">
<svg version="1.0" xmlns="http://www.w3.org/2000/svg"
 width="500.000000pt" height="500.000000pt" viewBox="0 0 500.000000 500.000000"
 preserveAspectRatio="xMidYMid meet">
<metadata>
Created by potrace 1.14, written by Peter Selinger 2001-2017
</metadata>
<g transform="translate(0.000000,500.000000) scale(0.100000,-0.100000)"
fill="#000000" stroke="none">
<path d="M2532 4339 c4 -11 -6 -14 -46 -12 -57 2 -89 -4 -81 -17 3 -4 -4 -6
-15 -3 -11 3 -17 10 -13 17 4 6 -1 5 -10 -2 -9 -8 -21 -11 -27 -7 -6 4 -9 1
-8 -7 2 -8 -4 -12 -16 -10 -11 2 -25 -4 -32 -13 -8 -10 -14 -12 -19 -5 -6 10
-55 -11 -83 -37 -7 -7 -20 -13 -28 -13 -10 0 -12 -5 -8 -12 5 -8 0 -7 -11 2
-17 13 -18 13 -13 -1 4 -11 0 -15 -15 -14 -12 1 -28 -7 -35 -17 -10 -14 -17
-16 -27 -8 -10 8 -13 6 -11 -7 0 -10 -5 -17 -11 -15 -7 1 -13 -3 -13 -9 0 -5
-4 -8 -8 -5 -5 3 -18 -3 -29 -14 -12 -10 -24 -16 -27 -13 -3 4 -6 -1 -6 -9 0
-9 -11 -19 -25 -22 -14 -4 -23 -11 -20 -16 4 -6 -1 -13 -9 -16 -9 -3 -13 -11
-9 -18 4 -6 -1 -5 -10 3 -15 12 -17 11 -17 -9 0 -15 -5 -20 -14 -17 -10 4 -13
0 -11 -14 4 -17 2 -19 -11 -8 -12 10 -13 9 -8 -4 3 -10 -2 -20 -16 -27 -12 -7
-19 -18 -16 -26 3 -8 -1 -14 -9 -14 -7 0 -17 -4 -20 -10 -4 -6 1 -7 12 -4 13
4 11 0 -7 -16 -14 -12 -20 -19 -14 -16 6 3 11 -1 11 -8 0 -8 -8 -12 -21 -9
-16 4 -17 2 -7 -5 9 -7 10 -12 2 -16 -6 -4 -9 -12 -6 -17 4 -5 2 -9 -4 -9 -5
0 -8 -9 -6 -20 2 -11 -1 -20 -7 -20 -6 0 -8 -12 -4 -30 3 -17 2 -29 -2 -26 -4
3 -14 -4 -21 -16 -7 -11 -8 -17 -2 -14 5 4 12 2 16 -4 3 -5 1 -10 -5 -10 -7 0
-10 -7 -6 -15 3 -8 0 -15 -7 -15 -8 0 -6 -4 3 -10 14 -9 7 -14 -13 -11 -5 1
-5 -4 -1 -11 11 -17 12 -68 2 -74 -4 -3 -3 -14 2 -25 6 -10 7 -19 2 -19 -9 0
-8 -172 2 -188 3 -6 2 -13 -3 -16 -5 -3 -7 -24 -6 -46 2 -24 -1 -38 -7 -34 -6
4 -6 -2 1 -14 8 -16 7 -21 -5 -26 -14 -5 -14 -8 -1 -21 9 -8 14 -26 13 -40 -2
-14 0 -25 3 -25 9 0 6 -104 -3 -118 -4 -7 -3 -12 3 -12 10 0 10 -18 -1 -35 -4
-6 -3 -17 2 -25 5 -8 4 -22 -2 -33 -7 -14 -7 -22 1 -26 5 -4 10 -15 10 -26 1
-45 5 -60 15 -67 7 -5 6 -8 -3 -8 -11 0 -11 -3 0 -17 12 -15 12 -16 -1 -8 -12
6 -13 5 -2 -6 6 -7 12 -19 12 -27 0 -7 -6 -10 -12 -7 -7 4 -4 -1 6 -9 11 -9
14 -16 8 -16 -9 0 -10 -5 -3 -19 6 -10 8 -21 4 -24 -3 -4 0 -14 8 -24 11 -13
11 -15 1 -9 -9 6 -12 3 -10 -10 2 -11 6 -21 10 -24 4 -4 9 -28 10 -54 0 -26 7
-54 15 -61 8 -9 9 -16 3 -20 -6 -4 -4 -15 5 -29 8 -12 12 -26 8 -29 -3 -4 -1
-7 6 -7 7 0 9 -4 6 -10 -3 -5 -1 -10 4 -10 6 0 10 -3 9 -7 -5 -17 24 -83 34
-77 6 4 8 -1 3 -15 -5 -15 -2 -21 10 -21 9 0 13 -4 10 -10 -3 -5 -1 -10 5 -10
6 0 8 -4 5 -10 -3 -5 3 -15 15 -22 11 -7 20 -19 20 -26 0 -7 5 -10 10 -7 9 6
14 -8 11 -28 -1 -5 2 -6 7 -3 4 2 16 -6 26 -20 11 -13 26 -24 35 -24 14 0 14
-2 1 -10 -13 -8 -12 -10 4 -10 11 0 17 -3 13 -6 -8 -8 18 -34 34 -34 7 0 10
-3 6 -6 -8 -8 16 -33 26 -27 4 2 7 1 6 -4 -1 -4 0 -10 1 -13 7 -19 7 -40 -1
-40 -4 0 -6 -7 -3 -15 4 -8 1 -15 -5 -15 -6 0 -11 -8 -11 -18 0 -22 -33 -55
-44 -45 -4 4 -4 0 0 -10 3 -10 1 -17 -5 -17 -6 0 -11 -7 -11 -16 0 -10 -6 -14
-14 -11 -10 4 -13 1 -9 -9 3 -7 0 -14 -7 -14 -6 0 -8 -4 -5 -10 4 -6 -1 -7
-11 -3 -12 4 -15 3 -10 -5 4 -7 2 -12 -4 -12 -6 0 -9 -4 -6 -9 3 -5 -1 -12
-10 -15 -10 -4 -13 -2 -8 7 4 6 -8 -1 -26 -18 -18 -16 -29 -23 -25 -15 8 13 6
13 -8 1 -9 -7 -15 -17 -12 -21 3 -5 -5 -6 -17 -2 -16 4 -19 2 -13 -8 6 -10 4
-12 -7 -7 -9 3 -19 3 -23 -1 -4 -4 -10 -7 -13 -7 -4 -1 -17 -6 -28 -13 -12 -6
-24 -8 -28 -5 -3 3 -6 1 -6 -6 0 -7 -4 -9 -10 -6 -5 3 -10 1 -10 -5 0 -6 -5
-8 -10 -5 -6 4 -17 1 -25 -5 -12 -10 -15 -10 -15 0 0 10 -5 9 -17 -2 -10 -8
-28 -14 -40 -13 -12 1 -20 -2 -17 -7 3 -4 -6 -8 -20 -8 -14 0 -26 -4 -26 -9 0
-6 -9 -8 -20 -6 -11 2 -20 0 -20 -4 0 -4 -7 -8 -15 -9 -8 -1 -22 -3 -30 -4 -8
-1 -15 -4 -15 -8 0 -3 -8 -6 -17 -6 -28 -1 -47 -8 -55 -19 -5 -6 -8 -5 -8 3 0
6 -5 12 -11 12 -5 0 -7 -5 -3 -12 5 -8 2 -9 -9 -5 -10 3 -17 3 -17 -1 0 -10
-51 -32 -61 -26 -5 3 -9 0 -9 -6 0 -6 -4 -8 -10 -5 -5 3 -10 2 -10 -2 0 -5 -9
-14 -21 -21 -17 -11 -20 -11 -14 0 3 7 0 6 -7 -4 -8 -9 -33 -26 -56 -38 -23
-12 -42 -26 -42 -32 0 -5 -4 -6 -10 -3 -6 4 -7 -1 -3 -12 3 -10 3 -15 -2 -11
-10 9 -35 -17 -35 -37 0 -9 -4 -13 -10 -10 -5 3 -10 1 -10 -6 0 -7 -8 -21 -18
-32 -9 -11 -11 -17 -4 -13 6 4 12 2 12 -3 0 -6 -5 -11 -11 -11 -5 0 -7 -5 -3
-12 5 -7 2 -9 -8 -6 -11 5 -14 1 -10 -17 2 -12 -1 -32 -7 -44 -8 -15 -8 -21
-1 -21 6 0 2 -9 -8 -20 -12 -13 -17 -30 -14 -45 2 -14 0 -31 -6 -38 -5 -6 -8
-20 -7 -30 2 -10 -1 -14 -8 -10 -6 4 -8 0 -4 -10 3 -10 2 -17 -3 -17 -5 0 -6
-7 -3 -17 5 -11 3 -14 -6 -8 -10 6 -11 3 -1 -15 10 -18 9 -21 -1 -15 -9 6 -11
2 -7 -13 4 -12 3 -22 -2 -22 -4 0 -7 -8 -7 -18 0 -35 -3 -43 -14 -36 -8 5 -8
1 0 -13 8 -15 6 -26 -6 -43 -9 -13 -11 -20 -5 -16 7 4 12 3 12 -3 0 -5 -4 -12
-10 -16 -5 -3 -6 -13 -3 -22 5 -12 3 -14 -8 -8 -12 8 -12 6 0 -8 10 -13 10
-17 1 -17 -7 0 -10 -7 -6 -15 3 -8 0 -15 -7 -15 -8 0 -8 -3 2 -9 9 -6 10 -11
3 -15 -6 -4 -8 -14 -5 -23 4 -11 3 -14 -5 -9 -7 4 -12 2 -12 -3 0 -6 6 -11 13
-11 9 0 8 -3 -2 -9 -10 -6 -10 -10 -1 -16 8 -5 6 -13 -7 -28 -12 -14 -13 -18
-3 -12 12 7 13 6 3 -6 -7 -9 -9 -20 -3 -29 5 -8 5 -19 0 -25 -5 -6 -8 -32 -7
-57 1 -25 -2 -44 -7 -41 -4 3 -5 -4 -1 -16 4 -14 2 -21 -7 -21 -11 0 -11 -2 0
-9 16 -10 16 -9 3 -43 -7 -18 -7 -29 0 -34 6 -4 5 -11 -3 -22 -11 -13 -11 -14
2 -7 13 8 13 7 1 -8 -11 -14 -11 -17 0 -17 8 0 5 -6 -7 -15 -10 -8 -14 -14 -9
-13 6 2 10 -2 10 -7 0 -6 -4 -9 -10 -7 -5 2 -4 -2 3 -9 16 -17 16 -32 0 -23
-10 6 -10 5 -1 -8 7 -8 10 -18 6 -21 -3 -4 951 -7 2120 -7 l2127 0 0 455 c0
278 -4 455 -9 455 -6 0 -8 9 -6 20 2 11 0 18 -6 15 -8 -6 -13 8 -10 27 0 4 -5
5 -13 2 -17 -7 -40 22 -30 38 4 7 4 10 0 6 -11 -9 -96 79 -96 100 0 15 -2 15
-10 2 -8 -13 -10 -12 -10 3 0 9 -4 17 -10 17 -5 0 -19 9 -30 20 -11 11 -20 17
-20 14 0 -3 -7 2 -16 10 -8 9 -20 14 -25 11 -8 -6 -13 8 -10 27 0 4 -6 5 -14
2 -8 -4 -15 -1 -15 7 0 7 -3 9 -6 6 -4 -4 -14 1 -23 11 -9 9 -23 18 -31 20 -8
2 -22 11 -31 22 -9 11 -19 17 -21 14 -3 -2 -11 2 -18 11 -7 8 -19 15 -26 15
-8 0 -14 5 -14 11 0 5 -4 8 -9 5 -5 -3 -14 0 -20 8 -7 8 -23 17 -37 20 -14 4
-22 11 -19 16 4 6 -1 7 -11 3 -13 -5 -15 -3 -9 7 5 8 3 11 -6 8 -8 -3 -20 1
-27 9 -8 7 -18 11 -23 7 -5 -3 -8 0 -7 8 2 7 -3 12 -10 10 -7 -1 -15 5 -18 13
-3 8 -10 12 -16 9 -5 -3 -18 2 -29 12 -10 9 -19 13 -19 8 0 -5 -7 0 -16 11 -8
11 -17 19 -19 18 -13 -7 -35 -2 -30 7 3 5 -3 10 -14 10 -12 0 -21 4 -21 10 0
5 -6 7 -14 4 -7 -3 -16 2 -19 10 -4 9 -15 16 -25 16 -10 0 -28 9 -40 20 -12
12 -22 17 -22 13 0 -4 -7 2 -16 13 -8 10 -13 13 -9 7 10 -21 -2 -15 -31 14
-15 16 -24 22 -20 16 4 -8 -5 -6 -23 5 -17 9 -31 21 -31 25 0 5 -4 6 -9 3 -10
-7 -53 28 -46 38 3 3 0 2 -6 -3 -12 -10 -45 15 -106 77 -17 17 -39 32 -48 32
-8 0 -18 7 -21 15 -4 8 -10 12 -15 9 -5 -3 -9 0 -9 7 0 8 -5 7 -17 -2 -11 -10
-14 -10 -9 -1 4 6 2 12 -3 12 -6 0 -11 7 -11 16 0 10 -5 14 -16 10 -8 -3 -12
-2 -9 4 3 6 1 10 -4 10 -6 0 -10 3 -10 8 4 24 -2 52 -11 47 -5 -3 -10 0 -10 7
0 14 -31 41 -46 41 -5 0 -14 7 -21 16 -9 12 -12 13 -13 2 0 -10 -3 -11 -13 -2
-8 6 -17 8 -21 4 -4 -4 -11 -1 -16 7 -7 11 -10 12 -10 2 0 -8 -5 -10 -12 -5
-7 4 -21 8 -31 8 -10 0 -22 7 -27 15 -8 13 -10 12 -10 -4 0 -16 -2 -15 -19 5
-14 17 -16 28 -9 37 6 7 7 12 1 12 -12 0 -11 39 1 59 6 10 5 12 -2 7 -8 -5
-12 2 -12 19 0 18 4 24 13 19 9 -6 9 -4 1 7 -13 16 -13 107 0 128 6 9 5 12 -1
8 -7 -4 -10 3 -9 18 0 14 6 25 11 25 6 0 5 4 -1 8 -14 8 -13 54 1 64 6 5 6 8
-1 8 -6 0 -11 7 -11 15 0 8 4 15 8 15 5 0 5 7 2 17 -4 11 -3 14 5 9 7 -4 12
-2 12 6 0 10 2 11 8 0 7 -10 15 -8 35 8 16 12 32 18 39 14 10 -6 10 -4 0 8
-10 13 -10 17 3 22 9 3 13 10 10 16 -3 5 -1 10 4 10 6 0 11 9 11 19 0 11 5 23
10 26 6 4 8 11 5 16 -4 5 -1 9 5 9 6 0 8 5 5 10 -3 6 -2 10 4 10 5 0 10 8 10
18 1 40 5 57 17 81 7 13 11 28 8 33 -3 4 -1 8 4 8 5 0 9 6 10 13 2 23 8 46 14
53 4 3 4 13 1 22 -4 9 -2 13 4 9 7 -5 9 0 6 13 -3 12 0 20 7 20 10 0 10 3 0
15 -7 8 -8 15 -3 15 13 0 12 33 -1 42 -7 5 -6 8 3 8 11 0 11 3 0 17 -12 15
-12 16 1 8 10 -6 9 -2 -3 12 -14 16 -15 22 -5 26 9 4 8 6 -4 6 -9 1 -19 10
-23 20 -3 11 -11 21 -18 24 -14 5 -16 114 -3 135 4 7 3 12 -2 12 -10 0 -10 30
1 46 3 6 3 14 0 18 -4 4 -8 16 -10 27 -2 14 1 18 9 13 8 -5 8 -1 -1 10 -13 15
-13 19 0 28 11 8 11 9 -3 5 -24 -8 -31 4 -10 19 16 11 16 13 -3 34 -13 14 -14
19 -4 15 10 -4 15 1 15 14 0 11 -4 17 -8 15 -13 -8 -9 11 5 25 6 7 8 12 2 11
-22 -5 -29 1 -15 10 12 8 12 10 1 10 -10 0 -11 3 -2 14 9 11 9 16 0 22 -8 5
-9 3 -4 -6 5 -8 4 -11 -3 -7 -5 4 -9 18 -7 32 1 14 -2 28 -6 31 -5 3 -9 21 -9
40 0 26 -3 33 -12 28 -9 -5 -8 -2 1 10 13 15 11 19 -10 34 -13 9 -28 16 -33
14 -5 -2 -3 5 5 14 9 12 9 15 2 10 -8 -4 -13 -1 -13 8 0 9 -5 16 -11 16 -8 0
-7 6 2 17 10 11 10 14 2 9 -8 -4 -13 -2 -13 6 0 10 -3 9 -11 -2 -8 -12 -10 -9
-6 12 3 20 0 25 -11 20 -11 -4 -14 -1 -9 12 4 10 3 15 -3 11 -6 -3 -10 -1 -10
5 0 7 -7 9 -16 6 -12 -4 -14 -1 -9 14 5 16 2 20 -15 20 -12 0 -19 4 -16 9 3 5
-1 12 -10 15 -8 3 -12 10 -9 16 3 5 0 7 -7 5 -8 -3 -25 7 -38 22 -18 20 -19
23 -4 10 11 -9 24 -17 28 -17 5 0 -2 9 -15 19 -18 14 -27 16 -37 9 -7 -6 -15
-8 -19 -4 -3 3 0 6 8 6 8 1 -1 7 -18 15 -18 8 -33 19 -33 25 0 6 -4 8 -10 5
-5 -3 -10 -1 -10 4 0 6 -3 10 -7 10 -20 -3 -33 2 -33 14 0 7 -10 14 -22 14
-13 1 -24 7 -26 13 -2 5 -15 10 -28 10 -14 0 -22 4 -19 10 3 6 -1 10 -9 10 -9
0 -16 5 -16 11 0 5 -4 8 -9 4 -5 -3 -16 2 -25 10 -8 8 -26 16 -40 17 -14 1
-26 7 -26 13 0 7 -13 10 -32 7 -30 -5 -32 -3 -19 12 12 15 12 16 -5 9 -10 -3
-22 -11 -26 -17 -5 -8 -8 -7 -8 1 0 7 -6 10 -14 7 -7 -3 -20 1 -27 8 -8 8 -30
13 -49 13 -19 0 -46 6 -59 13 -20 12 -23 12 -19 1z m859 -536 c13 -16 12 -17
-3 -4 -17 13 -22 21 -14 21 2 0 10 -8 17 -17z"/>
<path d="M2160 4250 c-9 -6 -10 -10 -3 -10 6 0 15 5 18 10 8 12 4 12 -15 0z"/>
</g>
</svg>
